<?xml version="1.0" encoding="UTF-8"?>
<!DOCTYPE svg PUBLIC "-//W3C//DTD SVG 1.1//EN" "http://www.w3.org/Graphics/SVG/1.1/DTD/svg11.dtd">
<!-- Creator: CorelDRAW 2020 (64-Bit) -->
<svg xmlns="http://www.w3.org/2000/svg" xml:space="preserve" width="150px" height="150px" version="1.1" style="shape-rendering:geometricPrecision; text-rendering:geometricPrecision; image-rendering:optimizeQuality; fill-rule:evenodd; clip-rule:evenodd"
viewBox="0 0 148.33 148.33"
 xmlns:xlink="http://www.w3.org/1999/xlink"
 xmlns:xodm="http://www.corel.com/coreldraw/odm/2003">
 <defs>
  <style type="text/css">
   <![CDATA[
    .str0 {stroke:#47A0FF;stroke-width:12.36;stroke-miterlimit:22.9256}
    .fil1 {fill:#FEFEFE}
    .fil0 {fill:#47A0FF}
   ]]>
  </style>
 </defs>
 <g id="Слой_x0020_1">
  <metadata id="CorelCorpID_0Corel-Layer"/>
  <g id="_2855744528624">
   <circle class="fil0 str0" cx="74.17" cy="74.17" r="67.99"/>
   <g>
    <path id="Shape" class="fil1" d="M74.17 46.3c9.07,0 10.15,0.03 13.73,0.2 3.32,0.15 5.12,0.7 6.32,1.17 1.58,0.61 2.71,1.35 3.9,2.54 1.19,1.19 1.93,2.32 2.55,3.91 0.46,1.2 1.02,3 1.17,6.31 0.16,3.59 0.2,4.66 0.2,13.74 0,9.07 -0.04,10.15 -0.2,13.73 -0.15,3.32 -0.71,5.12 -1.17,6.32 -0.62,1.58 -1.36,2.71 -2.55,3.9 -1.19,1.19 -2.32,1.93 -3.9,2.55 -1.2,0.46 -3,1.02 -6.32,1.17 -3.58,0.16 -4.66,0.2 -13.73,0.2 -9.08,0 -10.15,-0.04 -13.74,-0.2 -3.31,-0.15 -5.11,-0.71 -6.31,-1.17 -1.59,-0.62 -2.72,-1.36 -3.91,-2.55 -1.19,-1.19 -1.93,-2.32 -2.54,-3.9 -0.47,-1.2 -1.02,-3 -1.17,-6.32 -0.17,-3.58 -0.2,-4.66 -0.2,-13.73 0,-9.08 0.03,-10.15 0.2,-13.74 0.15,-3.31 0.7,-5.11 1.17,-6.31 0.61,-1.59 1.35,-2.72 2.54,-3.91 1.19,-1.19 2.32,-1.93 3.91,-2.54 1.2,-0.47 3,-1.02 6.31,-1.17 3.59,-0.17 4.66,-0.2 13.74,-0.2l0 0zm0 -6.13c-9.23,0 -10.39,0.04 -14.02,0.21 -3.62,0.16 -6.09,0.74 -8.25,1.58 -2.23,0.87 -4.13,2.03 -6.02,3.92 -1.89,1.89 -3.05,3.79 -3.92,6.02 -0.84,2.16 -1.42,4.63 -1.58,8.25 -0.17,3.63 -0.21,4.79 -0.21,14.02 0,9.23 0.04,10.39 0.21,14.01 0.16,3.62 0.74,6.09 1.58,8.25 0.87,2.24 2.03,4.14 3.92,6.03 1.89,1.89 3.79,3.05 6.02,3.92 2.16,0.84 4.63,1.41 8.25,1.58 3.63,0.16 4.79,0.2 14.02,0.2 9.23,0 10.39,-0.04 14.01,-0.2 3.62,-0.17 6.09,-0.74 8.25,-1.58 2.24,-0.87 4.13,-2.03 6.02,-3.92 1.89,-1.89 3.06,-3.79 3.93,-6.03 0.84,-2.16 1.41,-4.63 1.58,-8.25 0.16,-3.62 0.2,-4.78 0.2,-14.01 0,-9.23 -0.04,-10.39 -0.2,-14.02 -0.17,-3.62 -0.74,-6.09 -1.58,-8.25 -0.87,-2.23 -2.04,-4.13 -3.93,-6.02 -1.89,-1.89 -3.78,-3.05 -6.02,-3.92 -2.16,-0.84 -4.63,-1.42 -8.25,-1.58 -3.62,-0.17 -4.78,-0.21 -14.01,-0.21zm0.06 16.6c-9.64,0 -17.46,7.82 -17.46,17.46 0,9.65 7.82,17.47 17.46,17.47 9.65,0 17.47,-7.82 17.47,-17.47 0,-9.64 -7.82,-17.46 -17.47,-17.46zm0 28.8c-6.26,0 -11.34,-5.07 -11.34,-11.34 0,-6.26 5.08,-11.33 11.34,-11.33 6.27,0 11.34,5.07 11.34,11.33 0,6.27 -5.07,11.34 -11.34,11.34zm22.06 -29.61c0,2.23 -1.81,4.04 -4.05,4.04 -2.23,0 -4.04,-1.81 -4.04,-4.04 0,-2.24 1.81,-4.05 4.04,-4.05 2.24,0 4.05,1.81 4.05,4.05z"/>
   </g>
  </g>
 </g>
</svg>
