<?xml version="1.0" encoding="UTF-8"?>
<!DOCTYPE svg PUBLIC "-//W3C//DTD SVG 1.1//EN" "http://www.w3.org/Graphics/SVG/1.1/DTD/svg11.dtd">
<!-- Creator: CorelDRAW 2020 (64-Bit) -->
<svg xmlns="http://www.w3.org/2000/svg" xml:space="preserve" width="150px" height="150px" version="1.1" style="shape-rendering:geometricPrecision; text-rendering:geometricPrecision; image-rendering:optimizeQuality; fill-rule:evenodd; clip-rule:evenodd"
viewBox="0 0 148.33 148.33"
 xmlns:xlink="http://www.w3.org/1999/xlink"
 xmlns:xodm="http://www.corel.com/coreldraw/odm/2003">
 <defs>
  <style type="text/css">
   <![CDATA[
    .str0 {stroke:#47A0FF;stroke-width:12.36;stroke-miterlimit:22.9256}
    .fil1 {fill:#FEFEFE}
    .fil0 {fill:#47A0FF}
   ]]>
  </style>
 </defs>
 <g id="Слой_x0020_1">
  <metadata id="CorelCorpID_0Corel-Layer"/>
  <g id="_2855352505488">
   <circle class="fil0 str0" cx="74.17" cy="74.17" r="67.99"/>
   <path id="Shape" class="fil1" d="M100.52 58.24c2.75,-1.74 4.86,-4.49 5.85,-7.77 -2.58,1.61 -5.42,2.78 -8.46,3.41 -2.42,-2.73 -5.89,-4.43 -9.72,-4.43 -7.35,0 -13.31,6.28 -13.31,14.04 0,1.1 0.11,2.17 0.34,3.19 -11.06,-0.58 -20.87,-6.17 -27.44,-14.67 -1.14,2.08 -1.8,4.49 -1.8,7.06 0,4.87 2.35,9.17 5.92,11.7 -2.18,-0.08 -4.23,-0.72 -6.03,-1.76l0 0.17c0,6.81 4.59,12.48 10.68,13.77 -1.12,0.33 -2.29,0.49 -3.51,0.49 -0.85,0 -1.69,-0.08 -2.5,-0.24 1.69,5.57 6.61,9.64 12.44,9.75 -4.56,3.76 -10.3,6.01 -16.54,6.01 -1.07,0 -2.14,-0.06 -3.18,-0.2 5.9,3.98 12.89,6.31 20.41,6.31 24.5,0 37.88,-21.4 37.88,-39.95 0,-0.61 -0.01,-1.22 -0.03,-1.82 2.6,-1.98 4.86,-4.45 6.64,-7.27 -2.39,1.12 -4.96,1.87 -7.64,2.21z"/>
  </g>
 </g>
</svg>
