<?xml version="1.0" encoding="UTF-8"?>
<!DOCTYPE svg PUBLIC "-//W3C//DTD SVG 1.1//EN" "http://www.w3.org/Graphics/SVG/1.1/DTD/svg11.dtd">
<!-- Creator: CorelDRAW 2020 (64-Bit) -->
<svg xmlns="http://www.w3.org/2000/svg" xml:space="preserve" width="150px" height="150px" version="1.1" style="shape-rendering:geometricPrecision; text-rendering:geometricPrecision; image-rendering:optimizeQuality; fill-rule:evenodd; clip-rule:evenodd"
viewBox="0 0 148.33 148.33"
 xmlns:xlink="http://www.w3.org/1999/xlink"
 xmlns:xodm="http://www.corel.com/coreldraw/odm/2003">
 <defs>
  <style type="text/css">
   <![CDATA[
    .str0 {stroke:#47A0FF;stroke-width:12.36;stroke-miterlimit:22.9256}
    .fil1 {fill:#FEFEFE}
    .fil0 {fill:#47A0FF}
   ]]>
  </style>
 </defs>
 <g id="Слой_x0020_1">
  <metadata id="CorelCorpID_0Corel-Layer"/>
  <g id="_2855692928576">
   <circle class="fil0 str0" cx="74.17" cy="74.17" r="67.99"/>
   <path id="Shape" class="fil1" d="M55.4 92.76l0.05 -12.52 2.34 -0.02 2.33 -0.03 -0.02 -1.93 -0.03 -1.93 -6.75 -0.03 -6.75 -0.02 0 1.95 0 1.96 2.28 0.03 2.28 0.02 0.03 12.42c0.01,6.83 0.05,12.48 0.07,12.55 0.04,0.1 0.52,0.12 2.08,0.1l2.03 -0.03 0.06 -12.52zm38.95 -0.88c-0.1,-0.25 0.03,-3.14 0.16,-3.56 0.3,-0.99 0.92,-1.47 1.91,-1.47 0.83,0 1.35,0.32 1.7,1.04 0.23,0.45 0.25,0.65 0.28,2.32l0.04 1.83 -2.02 0c-1.73,0 -2.02,-0.02 -2.07,-0.16l0 0zm3.76 13.49c1.98,-0.56 3.34,-1.91 3.86,-3.82 0.08,-0.33 0.18,-1.26 0.22,-2.07l0.06 -1.46 -1.9 0 -1.91 0 -0.05 1.31c-0.05,1.5 -0.2,2.01 -0.75,2.49 -0.57,0.51 -1.63,0.54 -2.32,0.08 -0.83,-0.56 -1.03,-1.5 -0.99,-4.55l0.03 -2.17 3.94 -0.02 3.94 -0.03 -0.05 -3.22c-0.06,-3.59 -0.14,-4.14 -0.74,-5.41 -1.15,-2.42 -4.32,-3.64 -6.96,-2.67 -1.99,0.73 -3.17,2.04 -3.64,4.07 -0.16,0.72 -0.18,1.36 -0.18,6.61 0,6.45 0.02,6.71 0.67,8.03 1.17,2.35 4.11,3.58 6.77,2.83l0 0zm-15.6 -3.67c0.25,-0.16 0.41,-0.39 0.53,-0.75 0.16,-0.47 0.17,-1.06 0.15,-6.59 -0.02,-5.76 -0.03,-6.1 -0.22,-6.48 -0.48,-0.96 -1.68,-1.05 -2.78,-0.21l-0.36 0.27 0 6.57 0 6.57 0.36 0.28c0.82,0.62 1.71,0.75 2.32,0.34l0 0zm2.39 3.71c0.6,-0.17 1.32,-0.89 1.65,-1.62 0.62,-1.39 0.63,-1.43 0.63,-9.28 0,-6.44 -0.02,-7.23 -0.18,-7.93 -0.52,-2.23 -1.64,-3.2 -3.54,-3.06 -1.05,0.08 -1.89,0.5 -2.89,1.47 -0.43,0.42 -0.82,0.77 -0.87,0.77 -0.04,0 -0.07,-2.14 -0.07,-4.74l0 -4.74 -1.85 0 -1.85 0 0 14.53 0 14.52 1.85 0 1.85 0 0 -0.97c0,-0.66 0.04,-0.98 0.11,-0.98 0.06,0 0.48,0.34 0.93,0.76 1.43,1.36 2.68,1.73 4.23,1.27l0 0zm-19.68 -0.1c0.74,-0.27 1.61,-0.87 2.34,-1.62 0.34,-0.34 0.67,-0.62 0.75,-0.62 0.09,0 0.13,0.28 0.13,1.13l0 1.13 1.84 0 1.85 0 0 -10.76 0 -10.77 -1.85 0 -1.84 0 0 8.31 0 8.3 -0.8 0.79c-0.63,0.63 -0.9,0.83 -1.29,0.93 -0.66,0.19 -1.08,0.06 -1.35,-0.41 -0.2,-0.35 -0.21,-0.51 -0.24,-9.14l-0.03 -8.78 -1.84 0 -1.85 0 0 9.33c0,10.16 0.01,10.38 0.58,11.35 0.62,1.07 2.07,1.41 3.6,0.83l0 0zm1.57 8.99c-2.4,-0.04 -5.24,-0.11 -6.31,-0.15 -7.21,-0.26 -12.15,-0.54 -13.14,-0.74 -1.41,-0.28 -2.98,-1.24 -3.9,-2.36 -1.46,-1.81 -2.24,-4 -2.62,-7.37 -0.88,-7.83 -0.86,-16.96 0.05,-24.52 0.4,-3.31 1.4,-5.7 3.07,-7.37 0.95,-0.95 1.87,-1.48 3.09,-1.8 2.64,-0.68 23.34,-1.22 35.93,-0.94 7.28,0.16 15.14,0.5 17.22,0.74 2.71,0.31 4.6,1.71 5.92,4.38 0.99,2 1.3,3.57 1.71,8.39 0.31,3.82 0.39,6.2 0.33,10.61 -0.06,5.28 -0.4,9.92 -0.9,12.53 -0.53,2.76 -1.77,5.11 -3.39,6.38 -1.25,0.98 -2.57,1.42 -4.66,1.54 -0.62,0.04 -1.41,0.09 -1.75,0.11 -1.2,0.1 -7.65,0.36 -11.19,0.46 -5.26,0.15 -14.45,0.2 -19.46,0.11zm-6.48 -47.86c-0.09,-0.14 -0.08,-8.62 0.01,-9.82 0.12,-1.53 -0.14,-2.75 -1.24,-5.84 -0.36,-1.01 -1.01,-2.95 -1.44,-4.33 -3.11,-9.93 -2.94,-9.35 -2.65,-9.35 2.06,-0.02 4.59,-0.01 4.61,0.02 0.02,0.02 0.69,2.45 1.48,5.39 0.8,2.95 1.46,5.4 1.48,5.45 0.02,0.05 0.48,-1.67 1.04,-3.81 1.16,-4.51 1.81,-6.99 1.84,-7.01 0.05,-0.05 0.62,-0.06 2.51,-0.05l2.1 0.01 -0.05 0.34c-0.04,0.27 -1.47,5.08 -2.96,9.96 -0.16,0.54 -0.58,1.93 -0.92,3.1 -0.35,1.16 -0.76,2.53 -0.93,3.06l-0.3 0.96 0 5.96c0,5.6 -0.01,5.97 -0.18,6.02 -0.38,0.1 -4.34,0.05 -4.4,-0.06zm27.01 0.36c-1.03,-0.13 -1.63,-0.53 -2.05,-1.36 -0.51,-1.03 -0.51,-1.02 -0.51,-11.29l0 -9.58 2.08 0 2.08 0 0.04 8.83c0.05,9.6 0.04,9.37 0.61,9.52 0.53,0.13 1.11,-0.16 1.83,-0.9l0.7 -0.71 0.02 -8.37 0.03 -8.37 2.08 -0.03 2.08 -0.02 0 10.96 0 10.97 -0.29 0.06c-0.33,0.07 -3.49,0.06 -3.74,-0.01 -0.16,-0.04 -0.18,-0.19 -0.18,-1.04l0 -1 -0.59 0.58c-1.36,1.33 -2.83,1.94 -4.19,1.76l0 0zm-10.48 -4.19c0.71,-0.54 0.72,-0.59 0.76,-6.75 0.03,-4.79 0.01,-5.61 -0.13,-6.26 -0.2,-0.88 -0.54,-1.3 -1.21,-1.48 -0.87,-0.23 -1.66,0.26 -1.94,1.21 -0.21,0.73 -0.21,11.6 0.01,12.33 0.16,0.55 0.67,1.15 1.06,1.23 0.49,0.11 1.1,-0.01 1.45,-0.28l0 0zm-1.63 4.19c-1.86,-0.23 -3.58,-1.33 -4.4,-2.83 -0.84,-1.53 -0.92,-2.33 -0.87,-9.06 0.04,-5.21 0.06,-5.54 0.26,-6.29 0.49,-1.78 1.44,-2.99 2.92,-3.72 2.02,-1 4.21,-0.88 6.12,0.37 1.21,0.78 1.95,1.93 2.35,3.63 0.17,0.75 0.19,1.32 0.19,6.59 0,6.4 -0.03,6.77 -0.69,8.16 -0.62,1.34 -2.05,2.51 -3.53,2.93 -0.66,0.18 -1.79,0.29 -2.35,0.22l0 0z"/>
  </g>
 </g>
</svg>
